<?xml version="1.0" encoding="UTF-8" standalone="no"?>
<!DOCTYPE svg PUBLIC "-//W3C//DTD SVG 1.1//EN"
 "http://www.w3.org/Graphics/SVG/1.1/DTD/svg11.dtd">
<!-- Generated by graphviz version 2.42.4 (0)
 -->
<!-- Title: G Pages: 1 -->
<svg width="1551pt" height="520pt"
 viewBox="0.00 0.00 1551.00 520.00" xmlns="http://www.w3.org/2000/svg" xmlns:xlink="http://www.w3.org/1999/xlink">
<g id="graph0" class="graph" transform="scale(1 1) rotate(0) translate(18 502)">
<title>G</title>
<polygon fill="white" stroke="transparent" points="-18,18 -18,-502 1533,-502 1533,18 -18,18"/>
<text text-anchor="middle" x="757.5" y="-464" font-family="NanumSquare" font-size="20.00">WTC 전체 시스템 구성도</text>
<g id="clust1" class="cluster">
<title>cluster_vehicle</title>
<path fill="white" stroke="#8da9c4" d="M20,-364C20,-364 912.5,-364 912.5,-364 918.5,-364 924.5,-370 924.5,-376 924.5,-376 924.5,-434 924.5,-434 924.5,-440 918.5,-446 912.5,-446 912.5,-446 20,-446 20,-446 14,-446 8,-440 8,-434 8,-434 8,-376 8,-376 8,-370 14,-364 20,-364"/>
<text text-anchor="middle" x="466.25" y="-426" font-family="NanumSquare" font-size="20.00">차량(Subject Vehicle)</text>
</g>
<g id="clust2" class="cluster">
<title>cluster_witness</title>
<path fill="white" stroke="#6b9080" d="M335,-8C335,-8 1208,-8 1208,-8 1214,-8 1220,-14 1220,-20 1220,-20 1220,-322 1220,-322 1220,-328 1214,-334 1208,-334 1208,-334 335,-334 335,-334 329,-334 323,-328 323,-322 323,-322 323,-20 323,-20 323,-14 329,-8 335,-8"/>
<text text-anchor="middle" x="771.5" y="-314" font-family="NanumSquare" font-size="20.00">Witness / RSU</text>
</g>
<!-- planner -->
<g id="node1" class="node">
<title>planner</title>
<path fill="white" stroke="#555555" d="M118,-408C118,-408 28,-408 28,-408 22,-408 16,-402 16,-396 16,-396 16,-384 16,-384 16,-378 22,-372 28,-372 28,-372 118,-372 118,-372 124,-372 130,-378 130,-384 130,-384 130,-396 130,-396 130,-402 124,-408 118,-408"/>
<text text-anchor="middle" x="73" y="-387.2" font-family="NanumSquare" font-size="11.00">협력 주행계획 생성기</text>
</g>
<!-- envelope -->
<g id="node2" class="node">
<title>envelope</title>
<path fill="white" stroke="#555555" d="M278,-408C278,-408 183,-408 183,-408 177,-408 171,-402 171,-396 171,-396 171,-384 171,-384 171,-378 177,-372 183,-372 183,-372 278,-372 278,-372 284,-372 290,-378 290,-384 290,-384 290,-396 290,-396 290,-402 284,-408 278,-408"/>
<text text-anchor="middle" x="230.5" y="-393.2" font-family="NanumSquare" font-size="11.00">Trajectory Envelope</text>
<text text-anchor="middle" x="230.5" y="-381.2" font-family="NanumSquare" font-size="11.00">정규화·분할</text>
</g>
<!-- planner&#45;&gt;envelope -->
<g id="edge1" class="edge">
<title>planner&#45;&gt;envelope</title>
<path fill="none" stroke="#555555" d="M130.14,-390C140.88,-390 152.22,-390 163.25,-390"/>
<polygon fill="#555555" stroke="#555555" points="163.32,-392.63 170.82,-390 163.32,-387.38 163.32,-392.63"/>
</g>
<!-- merkle -->
<g id="node3" class="node">
<title>merkle</title>
<path fill="white" stroke="#555555" d="M434.5,-408C434.5,-408 356.5,-408 356.5,-408 350.5,-408 344.5,-402 344.5,-396 344.5,-396 344.5,-384 344.5,-384 344.5,-378 350.5,-372 356.5,-372 356.5,-372 434.5,-372 434.5,-372 440.5,-372 446.5,-378 446.5,-384 446.5,-384 446.5,-396 446.5,-396 446.5,-402 440.5,-408 434.5,-408"/>
<text text-anchor="middle" x="395.5" y="-387.2" font-family="NanumSquare" font-size="11.00">Merkle Tree 생성</text>
</g>
<!-- envelope&#45;&gt;merkle -->
<g id="edge2" class="edge">
<title>envelope&#45;&gt;merkle</title>
<path fill="none" stroke="#555555" d="M290.35,-390C305.41,-390 321.6,-390 336.61,-390"/>
<polygon fill="#555555" stroke="#555555" points="336.85,-392.63 344.35,-390 336.85,-387.38 336.85,-392.63"/>
</g>
<!-- commitment -->
<g id="node4" class="node">
<title>commitment</title>
<path fill="white" stroke="#555555" d="M664,-408C664,-408 513,-408 513,-408 507,-408 501,-402 501,-396 501,-396 501,-384 501,-384 501,-378 507,-372 513,-372 513,-372 664,-372 664,-372 670,-372 676,-378 676,-384 676,-384 676,-396 676,-396 676,-402 670,-408 664,-408"/>
<text text-anchor="middle" x="588.5" y="-393.2" font-family="NanumSquare" font-size="11.00">Trajectory Commitment</text>
<text text-anchor="middle" x="588.5" y="-381.2" font-family="NanumSquare" font-size="11.00">Consistency Key + Merkle Root</text>
</g>
<!-- merkle&#45;&gt;commitment -->
<g id="edge3" class="edge">
<title>merkle&#45;&gt;commitment</title>
<path fill="none" stroke="#555555" d="M446.68,-390C460.93,-390 476.93,-390 492.9,-390"/>
<polygon fill="#555555" stroke="#555555" points="493.22,-392.63 500.72,-390 493.22,-387.38 493.22,-392.63"/>
</g>
<!-- subject_sign -->
<g id="node5" class="node">
<title>subject_sign</title>
<path fill="white" stroke="#555555" d="M904.5,-408C904.5,-408 826.5,-408 826.5,-408 820.5,-408 814.5,-402 814.5,-396 814.5,-396 814.5,-384 814.5,-384 814.5,-378 820.5,-372 826.5,-372 826.5,-372 904.5,-372 904.5,-372 910.5,-372 916.5,-378 916.5,-384 916.5,-384 916.5,-396 916.5,-396 916.5,-402 910.5,-408 904.5,-408"/>
<text text-anchor="middle" x="865.5" y="-393.2" font-family="NanumSquare" font-size="11.00">KpqC 서명</text>
<text text-anchor="middle" x="865.5" y="-381.2" font-family="NanumSquare" font-size="11.00">HAETAE / AIMer</text>
</g>
<!-- commitment&#45;&gt;subject_sign -->
<g id="edge4" class="edge">
<title>commitment&#45;&gt;subject_sign</title>
<path fill="none" stroke="#555555" d="M676.13,-390C718.61,-390 768.63,-390 806.44,-390"/>
<polygon fill="#555555" stroke="#555555" points="806.82,-392.63 814.32,-390 806.82,-387.38 806.82,-392.63"/>
</g>
<!-- v2x -->
<g id="node6" class="node">
<title>v2x</title>
<polygon fill="#f7f7f7" stroke="#555555" points="1198,-378 1093,-378 1093,-374 1089,-374 1089,-370 1093,-370 1093,-350 1089,-350 1089,-346 1093,-346 1093,-342 1198,-342 1198,-378"/>
<polyline fill="none" stroke="#555555" points="1093,-374 1097,-374 1097,-370 1093,-370 "/>
<polyline fill="none" stroke="#555555" points="1093,-350 1097,-350 1097,-346 1093,-346 "/>
<text text-anchor="middle" x="1145.5" y="-363.2" font-family="NanumSquare" font-size="11.00">V2X 전달 계층</text>
<text text-anchor="middle" x="1145.5" y="-351.2" font-family="NanumSquare" font-size="11.00">직접 수신 / Gossip</text>
</g>
<!-- subject_sign&#45;&gt;v2x -->
<g id="edge12" class="edge">
<title>subject_sign&#45;&gt;v2x</title>
<path fill="none" stroke="#555555" d="M916.52,-384.6C963.95,-379.48 1035.23,-371.79 1085.44,-366.37"/>
<polygon fill="#555555" stroke="#555555" points="1085.82,-368.97 1093,-365.56 1085.26,-363.75 1085.82,-368.97"/>
<text text-anchor="middle" x="1009" y="-381.8" font-family="NanumSquare" font-size="9.00">Signed Commitment</text>
</g>
<!-- verify -->
<g id="node7" class="node">
<title>verify</title>
<path fill="white" stroke="#555555" d="M448,-283C448,-283 343,-283 343,-283 337,-283 331,-277 331,-271 331,-271 331,-259 331,-259 331,-253 337,-247 343,-247 343,-247 448,-247 448,-247 454,-247 460,-253 460,-259 460,-259 460,-271 460,-271 460,-277 454,-283 448,-283"/>
<text text-anchor="middle" x="395.5" y="-262.2" font-family="NanumSquare" font-size="11.00">차량 서명·유효기간 검증</text>
</g>
<!-- v2x&#45;&gt;verify -->
<g id="edge13" class="edge">
<title>v2x&#45;&gt;verify</title>
<path fill="none" stroke="#555555" d="M1092.57,-353.4C961.67,-336.78 618.02,-293.13 468.13,-274.1"/>
<polygon fill="#555555" stroke="#555555" points="468.05,-271.44 460.27,-273.1 467.38,-276.65 468.05,-271.44"/>
</g>
<!-- decision -->
<g id="node8" class="node">
<title>decision</title>
<path fill="white" stroke="#555555" d="M648,-192C648,-192 529,-192 529,-192 523,-192 517,-186 517,-180 517,-180 517,-168 517,-168 517,-162 523,-156 529,-156 529,-156 648,-156 648,-156 654,-156 660,-162 660,-168 660,-168 660,-180 660,-180 660,-186 654,-192 648,-192"/>
<text text-anchor="middle" x="588.5" y="-171.2" font-family="NanumSquare" font-size="11.00">Consistency / Chain 판정</text>
</g>
<!-- verify&#45;&gt;decision -->
<g id="edge5" class="edge">
<title>verify&#45;&gt;decision</title>
<path fill="none" stroke="#555555" d="M434.69,-246.8C465.89,-231.94 510.05,-210.9 542.88,-195.26"/>
<polygon fill="#555555" stroke="#555555" points="544.06,-197.61 549.7,-192.01 541.8,-192.87 544.06,-197.61"/>
</g>
<!-- receipt -->
<g id="node9" class="node">
<title>receipt</title>
<path fill="white" stroke="#555555" d="M927,-296C927,-296 804,-296 804,-296 798,-296 792,-290 792,-284 792,-284 792,-272 792,-272 792,-266 798,-260 804,-260 804,-260 927,-260 927,-260 933,-260 939,-266 939,-272 939,-272 939,-284 939,-284 939,-290 933,-296 927,-296"/>
<text text-anchor="middle" x="865.5" y="-275.2" font-family="NanumSquare" font-size="11.00">Witness Receipt 생성·서명</text>
</g>
<!-- decision&#45;&gt;receipt -->
<g id="edge6" class="edge">
<title>decision&#45;&gt;receipt</title>
<path fill="none" stroke="#555555" d="M633.14,-192.04C652.36,-199.87 675.24,-209.05 696,-217 732.33,-230.91 773.37,-245.78 805.85,-257.36"/>
<polygon fill="#555555" stroke="#555555" points="805.12,-259.89 813.07,-259.93 806.89,-254.94 805.12,-259.89"/>
</g>
<!-- cache1 -->
<g id="node10" class="node">
<title>cache1</title>
<path fill="white" stroke="#555555" d="M922.5,-109.73C922.5,-111.53 896.95,-113 865.5,-113 834.05,-113 808.5,-111.53 808.5,-109.73 808.5,-109.73 808.5,-80.27 808.5,-80.27 808.5,-78.47 834.05,-77 865.5,-77 896.95,-77 922.5,-78.47 922.5,-80.27 922.5,-80.27 922.5,-109.73 922.5,-109.73"/>
<path fill="none" stroke="#555555" d="M922.5,-109.73C922.5,-107.92 896.95,-106.45 865.5,-106.45 834.05,-106.45 808.5,-107.92 808.5,-109.73"/>
<text text-anchor="middle" x="865.5" y="-92.2" font-family="NanumSquare" font-size="11.00">active_head_cache</text>
</g>
<!-- decision&#45;&gt;cache1 -->
<g id="edge7" class="edge">
<title>decision&#45;&gt;cache1</title>
<path fill="none" stroke="#555555" d="M652.25,-155.97C696.69,-143.21 756.12,-126.14 800.78,-113.3"/>
<polygon fill="#555555" stroke="#555555" points="801.61,-115.8 808.1,-111.2 800.16,-110.75 801.61,-115.8"/>
<text text-anchor="middle" x="734" y="-143.8" font-family="NanumSquare" font-size="9.00">최신 정상 Head</text>
</g>
<!-- cache2 -->
<g id="node11" class="node">
<title>cache2</title>
<path fill="white" stroke="#555555" d="M922.5,-170.73C922.5,-172.53 896.95,-174 865.5,-174 834.05,-174 808.5,-172.53 808.5,-170.73 808.5,-170.73 808.5,-141.27 808.5,-141.27 808.5,-139.47 834.05,-138 865.5,-138 896.95,-138 922.5,-139.47 922.5,-141.27 922.5,-141.27 922.5,-170.73 922.5,-170.73"/>
<path fill="none" stroke="#555555" d="M922.5,-170.73C922.5,-168.92 896.95,-167.45 865.5,-167.45 834.05,-167.45 808.5,-168.92 808.5,-170.73"/>
<text text-anchor="middle" x="865.5" y="-153.2" font-family="NanumSquare" font-size="11.00">observation_cache</text>
</g>
<!-- decision&#45;&gt;cache2 -->
<g id="edge8" class="edge">
<title>decision&#45;&gt;cache2</title>
<path fill="none" stroke="#555555" d="M660.24,-168.53C672.17,-167.65 684.44,-166.78 696,-166 730.5,-163.68 769,-161.37 800.47,-159.56"/>
<polygon fill="#555555" stroke="#555555" points="800.98,-162.16 808.32,-159.11 800.68,-156.92 800.98,-162.16"/>
<text text-anchor="middle" x="734" y="-168.8" font-family="NanumSquare" font-size="9.00">Key별 Root 비교</text>
</g>
<!-- cache3 -->
<g id="node12" class="node">
<title>cache3</title>
<path fill="white" stroke="#555555" d="M933,-231.73C933,-233.53 902.75,-235 865.5,-235 828.25,-235 798,-233.53 798,-231.73 798,-231.73 798,-202.27 798,-202.27 798,-200.47 828.25,-199 865.5,-199 902.75,-199 933,-200.47 933,-202.27 933,-202.27 933,-231.73 933,-231.73"/>
<path fill="none" stroke="#555555" d="M933,-231.73C933,-229.92 902.75,-228.45 865.5,-228.45 828.25,-228.45 798,-229.92 798,-231.73"/>
<text text-anchor="middle" x="865.5" y="-214.2" font-family="NanumSquare" font-size="11.00">pending_update_cache</text>
</g>
<!-- decision&#45;&gt;cache3 -->
<g id="edge9" class="edge">
<title>decision&#45;&gt;cache3</title>
<path fill="none" stroke="#555555" d="M660.32,-185.07C700.17,-191.3 749.88,-199.08 790.28,-205.39"/>
<polygon fill="#555555" stroke="#555555" points="789.89,-207.99 797.71,-206.56 790.7,-202.8 789.89,-207.99"/>
<text text-anchor="middle" x="734" y="-203.8" font-family="NanumSquare" font-size="9.00">비순차 Update</text>
</g>
<!-- evidence -->
<g id="node13" class="node">
<title>evidence</title>
<path fill="white" stroke="#555555" d="M915.5,-52C915.5,-52 815.5,-52 815.5,-52 809.5,-52 803.5,-46 803.5,-40 803.5,-40 803.5,-28 803.5,-28 803.5,-22 809.5,-16 815.5,-16 815.5,-16 915.5,-16 915.5,-16 921.5,-16 927.5,-22 927.5,-28 927.5,-28 927.5,-40 927.5,-40 927.5,-46 921.5,-52 915.5,-52"/>
<text text-anchor="middle" x="865.5" y="-31.2" font-family="NanumSquare" font-size="11.00">Evidence Bundle 생성</text>
</g>
<!-- decision&#45;&gt;evidence -->
<g id="edge10" class="edge">
<title>decision&#45;&gt;evidence</title>
<path fill="none" stroke="#555555" d="M615.47,-155.71C636.6,-141.25 667.49,-121.06 696,-106 732.76,-86.58 775.91,-68.22 809.34,-54.9"/>
<polygon fill="#555555" stroke="#555555" points="810.31,-57.34 816.32,-52.14 808.38,-52.46 810.31,-57.34"/>
<text text-anchor="middle" x="734" y="-108.8" font-family="NanumSquare" font-size="9.00">동일 Key·상이 Root</text>
</g>
<!-- receipt&#45;&gt;v2x -->
<g id="edge14" class="edge">
<title>receipt&#45;&gt;v2x</title>
<path fill="none" stroke="#555555" d="M947.14,-274.08C983.89,-275.93 1026.38,-283.5 1059,-305 1073.32,-314.44 1065.61,-327.28 1079,-338 1081.24,-339.79 1083.63,-341.44 1086.13,-342.96"/>
<polygon fill="#555555" stroke="#555555" points="946.99,-271.45 939.39,-273.77 946.78,-276.69 946.99,-271.45"/>
<polygon fill="#555555" stroke="#555555" points="1085.11,-345.39 1092.95,-346.67 1087.62,-340.78 1085.11,-345.39"/>
<text text-anchor="middle" x="1009" y="-307.8" font-family="NanumSquare" font-size="9.00">Signed Receipt / Gossip</text>
</g>
<!-- store -->
<g id="node14" class="node">
<title>store</title>
<path fill="white" stroke="#555555" d="M1212,-48.73C1212,-50.53 1182.19,-52 1145.5,-52 1108.81,-52 1079,-50.53 1079,-48.73 1079,-48.73 1079,-19.27 1079,-19.27 1079,-17.47 1108.81,-16 1145.5,-16 1182.19,-16 1212,-17.47 1212,-19.27 1212,-19.27 1212,-48.73 1212,-48.73"/>
<path fill="none" stroke="#555555" d="M1212,-48.73C1212,-46.92 1182.19,-45.45 1145.5,-45.45 1108.81,-45.45 1079,-46.92 1079,-48.73"/>
<text text-anchor="middle" x="1145.5" y="-31.2" font-family="NanumSquare" font-size="11.00">evidence_store / JSON</text>
</g>
<!-- evidence&#45;&gt;store -->
<g id="edge11" class="edge">
<title>evidence&#45;&gt;store</title>
<path fill="none" stroke="#555555" d="M927.51,-34C969.81,-34 1026.37,-34 1071.14,-34"/>
<polygon fill="#555555" stroke="#555555" points="1071.28,-36.63 1078.78,-34 1071.28,-31.38 1071.28,-36.63"/>
</g>
<!-- auditor -->
<g id="node15" class="node">
<title>auditor</title>
<path fill="#fff8e7" stroke="#555555" d="M1503,-52C1503,-52 1327,-52 1327,-52 1321,-52 1315,-46 1315,-40 1315,-40 1315,-28 1315,-28 1315,-22 1321,-16 1327,-16 1327,-16 1503,-16 1503,-16 1509,-16 1515,-22 1515,-28 1515,-28 1515,-40 1515,-40 1515,-46 1509,-52 1503,-52"/>
<text text-anchor="middle" x="1415" y="-37.2" font-family="NanumSquare" font-size="11.00">사후 검증자 / 책임성 분석</text>
<text text-anchor="middle" x="1415" y="-25.2" font-family="NanumSquare" font-size="11.00">서명·Receipt·Consistency Key 재검증</text>
</g>
<!-- store&#45;&gt;auditor -->
<g id="edge15" class="edge">
<title>store&#45;&gt;auditor</title>
<path fill="none" stroke="#555555" d="M1212.28,-34C1240.85,-34 1275.06,-34 1307.12,-34"/>
<polygon fill="#555555" stroke="#555555" points="1307.28,-36.63 1314.78,-34 1307.28,-31.38 1307.28,-36.63"/>
<text text-anchor="middle" x="1263.5" y="-36.8" font-family="NanumSquare" font-size="9.00">검증 가능한 증거</text>
</g>
</g>
</svg>
