<?xml version="1.0" encoding="UTF-8" standalone="no"?>
<!DOCTYPE svg PUBLIC "-//W3C//DTD SVG 1.1//EN"
 "http://www.w3.org/Graphics/SVG/1.1/DTD/svg11.dtd">
<!-- Generated by graphviz version 2.42.4 (0)
 -->
<!-- Title: G Pages: 1 -->
<svg width="348pt" height="769pt"
 viewBox="0.00 0.00 348.00 769.00" xmlns="http://www.w3.org/2000/svg" xmlns:xlink="http://www.w3.org/1999/xlink">
<g id="graph0" class="graph" transform="scale(1 1) rotate(0) translate(18 751)">
<title>G</title>
<polygon fill="white" stroke="transparent" points="-18,18 -18,-751 330,-751 330,18 -18,18"/>
<text text-anchor="middle" x="156" y="-713" font-family="NanumSquare" font-size="20.00">정상 Commitment 처리 Sequence</text>
<!-- actors -->
<g id="node1" class="node">
<title>actors</title>
<path fill="#edf4fa" stroke="#555555" d="M111.5,-610.5C111.5,-610.5 200.5,-610.5 200.5,-610.5 206.5,-610.5 212.5,-616.5 212.5,-622.5 212.5,-622.5 212.5,-690.5 212.5,-690.5 212.5,-696.5 206.5,-702.5 200.5,-702.5 200.5,-702.5 111.5,-702.5 111.5,-702.5 105.5,-702.5 99.5,-696.5 99.5,-690.5 99.5,-690.5 99.5,-622.5 99.5,-622.5 99.5,-616.5 105.5,-610.5 111.5,-610.5"/>
<text text-anchor="middle" x="156" y="-688.5" font-family="NanumSquare" font-size="10.00">차량</text>
<polyline fill="none" stroke="#555555" points="99.5,-679.5 212.5,-679.5 "/>
<text text-anchor="middle" x="156" y="-665.5" font-family="NanumSquare" font-size="10.00">CommitmentFactory</text>
<polyline fill="none" stroke="#555555" points="99.5,-656.5 212.5,-656.5 "/>
<text text-anchor="middle" x="156" y="-642.5" font-family="NanumSquare" font-size="10.00">Witness/RSU</text>
<polyline fill="none" stroke="#555555" points="99.5,-633.5 212.5,-633.5 "/>
<text text-anchor="middle" x="156" y="-619.5" font-family="NanumSquare" font-size="10.00">키 저장소·캐시</text>
</g>
<!-- s1 -->
<g id="node2" class="node">
<title>s1</title>
<path fill="white" stroke="#555555" d="M224,-585C224,-585 88,-585 88,-585 82,-585 76,-579 76,-573 76,-573 76,-561 76,-561 76,-555 82,-549 88,-549 88,-549 224,-549 224,-549 230,-549 236,-555 236,-561 236,-561 236,-573 236,-573 236,-579 230,-585 224,-585"/>
<text text-anchor="middle" x="156" y="-564.5" font-family="NanumSquare" font-size="10.00">1. Trajectory Envelope 목록 전달</text>
</g>
<!-- actors&#45;&gt;s1 -->
<g id="edge1" class="edge">
<title>actors&#45;&gt;s1</title>
<path fill="none" stroke="#555555" d="M156,-610.47C156,-604.25 156,-598.07 156,-592.42"/>
<polygon fill="#555555" stroke="#555555" points="158.45,-592.1 156,-585.1 153.55,-592.1 158.45,-592.1"/>
</g>
<!-- s2 -->
<g id="node3" class="node">
<title>s2</title>
<path fill="white" stroke="#555555" d="M247.5,-524C247.5,-524 64.5,-524 64.5,-524 58.5,-524 52.5,-518 52.5,-512 52.5,-512 52.5,-500 52.5,-500 52.5,-494 58.5,-488 64.5,-488 64.5,-488 247.5,-488 247.5,-488 253.5,-488 259.5,-494 259.5,-500 259.5,-500 259.5,-512 259.5,-512 259.5,-518 253.5,-524 247.5,-524"/>
<text text-anchor="middle" x="156" y="-503.5" font-family="NanumSquare" font-size="10.00">2. Canonical Encoding 및 Merkle Root 계산</text>
</g>
<!-- s1&#45;&gt;s2 -->
<g id="edge2" class="edge">
<title>s1&#45;&gt;s2</title>
<path fill="none" stroke="#555555" d="M156,-548.93C156,-543.48 156,-537.33 156,-531.45"/>
<polygon fill="#555555" stroke="#555555" points="158.45,-531.23 156,-524.23 153.55,-531.23 158.45,-531.23"/>
</g>
<!-- s3 -->
<g id="node4" class="node">
<title>s3</title>
<path fill="white" stroke="#555555" d="M280,-463C280,-463 32,-463 32,-463 26,-463 20,-457 20,-451 20,-451 20,-439 20,-439 20,-433 26,-427 32,-427 32,-427 280,-427 280,-427 286,-427 292,-433 292,-439 292,-439 292,-451 292,-451 292,-457 286,-463 280,-463"/>
<text text-anchor="middle" x="156" y="-442.5" font-family="NanumSquare" font-size="10.00">3. Consistency Key와 유효기간을 포함한 Commitment 구성</text>
</g>
<!-- s2&#45;&gt;s3 -->
<g id="edge3" class="edge">
<title>s2&#45;&gt;s3</title>
<path fill="none" stroke="#555555" d="M156,-487.93C156,-482.48 156,-476.33 156,-470.45"/>
<polygon fill="#555555" stroke="#555555" points="158.45,-470.23 156,-463.23 153.55,-470.23 158.45,-470.23"/>
</g>
<!-- s4 -->
<g id="node5" class="node">
<title>s4</title>
<path fill="white" stroke="#555555" d="M210.5,-402C210.5,-402 101.5,-402 101.5,-402 95.5,-402 89.5,-396 89.5,-390 89.5,-390 89.5,-378 89.5,-378 89.5,-372 95.5,-366 101.5,-366 101.5,-366 210.5,-366 210.5,-366 216.5,-366 222.5,-372 222.5,-378 222.5,-378 222.5,-390 222.5,-390 222.5,-396 216.5,-402 210.5,-402"/>
<text text-anchor="middle" x="156" y="-381.5" font-family="NanumSquare" font-size="10.00">4. 차량 개인키로 KpqC 서명</text>
</g>
<!-- s3&#45;&gt;s4 -->
<g id="edge4" class="edge">
<title>s3&#45;&gt;s4</title>
<path fill="none" stroke="#555555" d="M156,-426.93C156,-421.48 156,-415.33 156,-409.45"/>
<polygon fill="#555555" stroke="#555555" points="158.45,-409.23 156,-402.23 153.55,-409.23 158.45,-409.23"/>
</g>
<!-- s5 -->
<g id="node6" class="node">
<title>s5</title>
<path fill="white" stroke="#555555" d="M215.5,-341C215.5,-341 96.5,-341 96.5,-341 90.5,-341 84.5,-335 84.5,-329 84.5,-329 84.5,-317 84.5,-317 84.5,-311 90.5,-305 96.5,-305 96.5,-305 215.5,-305 215.5,-305 221.5,-305 227.5,-311 227.5,-317 227.5,-317 227.5,-329 227.5,-329 227.5,-335 221.5,-341 215.5,-341"/>
<text text-anchor="middle" x="156" y="-320.5" font-family="NanumSquare" font-size="10.00">5. Signed Commitment 전송</text>
</g>
<!-- s4&#45;&gt;s5 -->
<g id="edge5" class="edge">
<title>s4&#45;&gt;s5</title>
<path fill="none" stroke="#555555" d="M156,-365.93C156,-360.48 156,-354.33 156,-348.45"/>
<polygon fill="#555555" stroke="#555555" points="158.45,-348.23 156,-341.23 153.55,-348.23 158.45,-348.23"/>
</g>
<!-- s6 -->
<g id="node7" class="node">
<title>s6</title>
<path fill="white" stroke="#555555" d="M218,-280C218,-280 94,-280 94,-280 88,-280 82,-274 82,-268 82,-268 82,-256 82,-256 82,-250 88,-244 94,-244 94,-244 218,-244 218,-244 224,-244 230,-250 230,-256 230,-256 230,-268 230,-268 230,-274 224,-280 218,-280"/>
<text text-anchor="middle" x="156" y="-259.5" font-family="NanumSquare" font-size="10.00">6. 차량 공개키 조회 및 서명 검증</text>
</g>
<!-- s5&#45;&gt;s6 -->
<g id="edge6" class="edge">
<title>s5&#45;&gt;s6</title>
<path fill="none" stroke="#555555" d="M156,-304.93C156,-299.48 156,-293.33 156,-287.45"/>
<polygon fill="#555555" stroke="#555555" points="158.45,-287.23 156,-280.23 153.55,-287.23 158.45,-287.23"/>
</g>
<!-- s7 -->
<g id="node8" class="node">
<title>s7</title>
<path fill="white" stroke="#555555" d="M271.5,-219C271.5,-219 40.5,-219 40.5,-219 34.5,-219 28.5,-213 28.5,-207 28.5,-207 28.5,-195 28.5,-195 28.5,-189 34.5,-183 40.5,-183 40.5,-183 271.5,-183 271.5,-183 277.5,-183 283.5,-189 283.5,-195 283.5,-195 283.5,-207 283.5,-207 283.5,-213 277.5,-219 271.5,-219"/>
<text text-anchor="middle" x="156" y="-198.5" font-family="NanumSquare" font-size="10.00">7. 유효기간·초기 sequence=0·parent_root=None 확인</text>
</g>
<!-- s6&#45;&gt;s7 -->
<g id="edge7" class="edge">
<title>s6&#45;&gt;s7</title>
<path fill="none" stroke="#555555" d="M156,-243.93C156,-238.48 156,-232.33 156,-226.45"/>
<polygon fill="#555555" stroke="#555555" points="158.45,-226.23 156,-219.23 153.55,-226.23 158.45,-226.23"/>
</g>
<!-- s8 -->
<g id="node9" class="node">
<title>s8</title>
<path fill="white" stroke="#555555" d="M255.5,-158C255.5,-158 56.5,-158 56.5,-158 50.5,-158 44.5,-152 44.5,-146 44.5,-146 44.5,-134 44.5,-134 44.5,-128 50.5,-122 56.5,-122 56.5,-122 255.5,-122 255.5,-122 261.5,-122 267.5,-128 267.5,-134 267.5,-134 267.5,-146 267.5,-146 267.5,-152 261.5,-158 255.5,-158"/>
<text text-anchor="middle" x="156" y="-137.5" font-family="NanumSquare" font-size="10.00">8. active_head / observation / digest 캐시 저장</text>
</g>
<!-- s7&#45;&gt;s8 -->
<g id="edge8" class="edge">
<title>s7&#45;&gt;s8</title>
<path fill="none" stroke="#555555" d="M156,-182.93C156,-177.48 156,-171.33 156,-165.45"/>
<polygon fill="#555555" stroke="#555555" points="158.45,-165.23 156,-158.23 153.55,-165.23 158.45,-165.23"/>
</g>
<!-- s9 -->
<g id="node10" class="node">
<title>s9</title>
<path fill="white" stroke="#555555" d="M260,-97C260,-97 52,-97 52,-97 46,-97 40,-91 40,-85 40,-85 40,-73 40,-73 40,-67 46,-61 52,-61 52,-61 260,-61 260,-61 266,-61 272,-67 272,-73 272,-73 272,-85 272,-85 272,-91 266,-97 260,-97"/>
<text text-anchor="middle" x="156" y="-76.5" font-family="NanumSquare" font-size="10.00">9. Witness Receipt 생성 후 Witness 개인키로 서명</text>
</g>
<!-- s8&#45;&gt;s9 -->
<g id="edge9" class="edge">
<title>s8&#45;&gt;s9</title>
<path fill="none" stroke="#555555" d="M156,-121.93C156,-116.48 156,-110.33 156,-104.45"/>
<polygon fill="#555555" stroke="#555555" points="158.45,-104.23 156,-97.23 153.55,-104.23 158.45,-104.23"/>
</g>
<!-- s10 -->
<g id="node11" class="node">
<title>s10</title>
<path fill="#e9f7ef" stroke="#555555" d="M229,-36C229,-36 83,-36 83,-36 77,-36 71,-30 71,-24 71,-24 71,-12 71,-12 71,-6 77,0 83,0 83,0 229,0 229,0 235,0 241,-6 241,-12 241,-12 241,-24 241,-24 241,-30 235,-36 229,-36"/>
<text text-anchor="middle" x="156" y="-15.5" font-family="NanumSquare" font-size="10.00">10. ACCEPT + Signed Receipt 반환</text>
</g>
<!-- s9&#45;&gt;s10 -->
<g id="edge10" class="edge">
<title>s9&#45;&gt;s10</title>
<path fill="none" stroke="#555555" d="M156,-60.93C156,-55.48 156,-49.33 156,-43.45"/>
<polygon fill="#555555" stroke="#555555" points="158.45,-43.23 156,-36.23 153.55,-43.23 158.45,-43.23"/>
</g>
</g>
</svg>
