<?xml version="1.0" encoding="UTF-8" standalone="no"?>
<!DOCTYPE svg PUBLIC "-//W3C//DTD SVG 1.1//EN"
 "http://www.w3.org/Graphics/SVG/1.1/DTD/svg11.dtd">
<!-- Generated by graphviz version 2.42.4 (0)
 -->
<!-- Title: G Pages: 1 -->
<svg width="675pt" height="904pt"
 viewBox="0.00 0.00 675.00 904.00" xmlns="http://www.w3.org/2000/svg" xmlns:xlink="http://www.w3.org/1999/xlink">
<g id="graph0" class="graph" transform="scale(1 1) rotate(0) translate(18 886)">
<title>G</title>
<polygon fill="white" stroke="transparent" points="-18,18 -18,-886 657,-886 657,18 -18,18"/>
<text text-anchor="middle" x="319.5" y="-848" font-family="NanumSquare" font-size="20.00">Witness 판정 알고리즘 흐름도</text>
<!-- start -->
<g id="node1" class="node">
<title>start</title>
<ellipse fill="white" stroke="#555555" cx="501" cy="-820" rx="57.25" ry="18"/>
<text text-anchor="middle" x="501" y="-817.4" font-family="NanumSquare" font-size="9.50">Commitment 수신</text>
</g>
<!-- sig -->
<g id="node2" class="node">
<title>sig</title>
<path fill="white" stroke="#555555" d="M489.38,-774.01C489.38,-774.01 442.65,-761.99 442.65,-761.99 436.84,-760.49 436.84,-757.51 442.65,-756.01 442.65,-756.01 489.38,-743.99 489.38,-743.99 495.19,-742.49 506.81,-742.49 512.62,-743.99 512.62,-743.99 559.35,-756.01 559.35,-756.01 565.16,-757.51 565.16,-760.49 559.35,-761.99 559.35,-761.99 512.62,-774.01 512.62,-774.01 506.81,-775.51 495.19,-775.51 489.38,-774.01"/>
<text text-anchor="middle" x="501" y="-756.4" font-family="NanumSquare" font-size="9.50">차량 서명 유효?</text>
</g>
<!-- start&#45;&gt;sig -->
<g id="edge1" class="edge">
<title>start&#45;&gt;sig</title>
<path fill="none" stroke="#555555" d="M501,-801.93C501,-796.36 501,-790.05 501,-784.06"/>
<polygon fill="#555555" stroke="#555555" points="503.28,-783.73 501,-777.23 498.73,-783.73 503.28,-783.73"/>
</g>
<!-- validity -->
<g id="node3" class="node">
<title>validity</title>
<path fill="white" stroke="#555555" d="M406.21,-705.78C406.21,-705.78 334.3,-692.22 334.3,-692.22 328.4,-691.11 328.4,-688.89 334.3,-687.78 334.3,-687.78 406.21,-674.22 406.21,-674.22 412.1,-673.11 423.9,-673.11 429.79,-674.22 429.79,-674.22 501.7,-687.78 501.7,-687.78 507.6,-688.89 507.6,-691.11 501.7,-692.22 501.7,-692.22 429.79,-705.78 429.79,-705.78 423.9,-706.89 412.1,-706.89 406.21,-705.78"/>
<text text-anchor="middle" x="418" y="-687.4" font-family="NanumSquare" font-size="9.50">valid_until_ms ≥ now?</text>
</g>
<!-- sig&#45;&gt;validity -->
<g id="edge3" class="edge">
<title>sig&#45;&gt;validity</title>
<path fill="none" stroke="#555555" d="M485,-745.08C472.35,-734.88 454.56,-720.51 440.48,-709.15"/>
<polygon fill="#555555" stroke="#555555" points="441.58,-707.11 435.1,-704.8 438.73,-710.65 441.58,-707.11"/>
<text text-anchor="middle" x="469" y="-722.2" font-family="NanumSquare" font-size="8.50">예</text>
</g>
<!-- invalidsig -->
<g id="node13" class="node">
<title>invalidsig</title>
<path fill="#fdedec" stroke="#555555" d="M627,-708C627,-708 543,-708 543,-708 537,-708 531,-702 531,-696 531,-696 531,-684 531,-684 531,-678 537,-672 543,-672 543,-672 627,-672 627,-672 633,-672 639,-678 639,-684 639,-684 639,-696 639,-696 639,-702 633,-708 627,-708"/>
<text text-anchor="middle" x="585" y="-687.4" font-family="NanumSquare" font-size="9.50">INVALID_SIGNATURE</text>
</g>
<!-- sig&#45;&gt;invalidsig -->
<g id="edge2" class="edge">
<title>sig&#45;&gt;invalidsig</title>
<path fill="none" stroke="#555555" d="M517.2,-745.08C528.81,-735.82 544.73,-723.12 558.22,-712.36"/>
<polygon fill="#555555" stroke="#555555" points="559.79,-714.02 563.45,-708.19 556.95,-710.46 559.79,-714.02"/>
<text text-anchor="middle" x="560.5" y="-722.2" font-family="NanumSquare" font-size="8.50">아니오</text>
</g>
<!-- digest -->
<g id="node4" class="node">
<title>digest</title>
<path fill="white" stroke="#555555" d="M330.34,-636.18C330.34,-636.18 229.66,-611.82 229.66,-611.82 223.83,-610.41 223.83,-607.59 229.66,-606.18 229.66,-606.18 330.34,-581.82 330.34,-581.82 336.17,-580.41 347.83,-580.41 353.66,-581.82 353.66,-581.82 454.34,-606.18 454.34,-606.18 460.17,-607.59 460.17,-610.41 454.34,-611.82 454.34,-611.82 353.66,-636.18 353.66,-636.18 347.83,-637.59 336.17,-637.59 330.34,-636.18"/>
<text text-anchor="middle" x="342" y="-611.4" font-family="NanumSquare" font-size="9.50">동일 Commitment Digest</text>
<text text-anchor="middle" x="342" y="-601.4" font-family="NanumSquare" font-size="9.50">이미 존재?</text>
</g>
<!-- validity&#45;&gt;digest -->
<g id="edge5" class="edge">
<title>validity&#45;&gt;digest</title>
<path fill="none" stroke="#555555" d="M404.06,-674.51C394.38,-664.44 381.15,-650.69 369.39,-638.48"/>
<polygon fill="#555555" stroke="#555555" points="370.95,-636.81 364.8,-633.7 367.67,-639.96 370.95,-636.81"/>
<text text-anchor="middle" x="394" y="-653.2" font-family="NanumSquare" font-size="8.50">예</text>
</g>
<!-- stale -->
<g id="node14" class="node">
<title>stale</title>
<path fill="#fdedec" stroke="#555555" d="M505,-198C505,-198 475,-198 475,-198 469,-198 463,-192 463,-186 463,-186 463,-174 463,-174 463,-168 469,-162 475,-162 475,-162 505,-162 505,-162 511,-162 517,-168 517,-174 517,-174 517,-186 517,-186 517,-192 511,-198 505,-198"/>
<text text-anchor="middle" x="490" y="-177.4" font-family="NanumSquare" font-size="9.50">STALE</text>
</g>
<!-- validity&#45;&gt;stale -->
<g id="edge4" class="edge">
<title>validity&#45;&gt;stale</title>
<path fill="none" stroke="#555555" d="M442.47,-676.6C464.68,-663.41 494,-640.26 494,-610 494,-610 494,-610 494,-260 494,-241.54 492.9,-220.69 491.85,-205.04"/>
<polygon fill="#555555" stroke="#555555" points="494.1,-204.57 491.38,-198.25 489.56,-204.89 494.1,-204.57"/>
<text text-anchor="middle" x="505.5" y="-420.7" font-family="NanumSquare" font-size="8.50">아니오</text>
</g>
<!-- same_root -->
<g id="node5" class="node">
<title>same_root</title>
<path fill="white" stroke="#555555" d="M239.37,-543.04C239.37,-543.04 144.63,-518.96 144.63,-518.96 138.82,-517.48 138.82,-514.52 144.63,-513.04 144.63,-513.04 239.37,-488.96 239.37,-488.96 245.18,-487.48 256.82,-487.48 262.63,-488.96 262.63,-488.96 357.37,-513.04 357.37,-513.04 363.18,-514.52 363.18,-517.48 357.37,-518.96 357.37,-518.96 262.63,-543.04 262.63,-543.04 256.82,-544.52 245.18,-544.52 239.37,-543.04"/>
<text text-anchor="middle" x="251" y="-518.4" font-family="NanumSquare" font-size="9.50">동일 Consistency Key와</text>
<text text-anchor="middle" x="251" y="-508.4" font-family="NanumSquare" font-size="9.50">동일 Root 존재?</text>
</g>
<!-- digest&#45;&gt;same_root -->
<g id="edge7" class="edge">
<title>digest&#45;&gt;same_root</title>
<path fill="none" stroke="#555555" d="M318.57,-584.57C306.57,-572.57 291.88,-557.88 279.26,-545.26"/>
<polygon fill="#555555" stroke="#555555" points="280.56,-543.34 274.36,-540.36 277.34,-546.56 280.56,-543.34"/>
<text text-anchor="middle" x="311.5" y="-560.2" font-family="NanumSquare" font-size="8.50">아니오</text>
</g>
<!-- duplicate -->
<g id="node15" class="node">
<title>duplicate</title>
<path fill="#fff8e7" stroke="#555555" d="M426.5,-441C426.5,-441 383.5,-441 383.5,-441 377.5,-441 371.5,-435 371.5,-429 371.5,-429 371.5,-417 371.5,-417 371.5,-411 377.5,-405 383.5,-405 383.5,-405 426.5,-405 426.5,-405 432.5,-405 438.5,-411 438.5,-417 438.5,-417 438.5,-429 438.5,-429 438.5,-435 432.5,-441 426.5,-441"/>
<text text-anchor="middle" x="405" y="-420.4" font-family="NanumSquare" font-size="9.50">DUPLICATE</text>
</g>
<!-- digest&#45;&gt;duplicate -->
<g id="edge6" class="edge">
<title>digest&#45;&gt;duplicate</title>
<path fill="none" stroke="#555555" d="M358.92,-582.95C365.68,-572 373.02,-558.76 378,-546 390.83,-513.12 398.26,-472.75 401.97,-447.7"/>
<polygon fill="#555555" stroke="#555555" points="404.25,-447.81 402.92,-441.06 399.74,-447.17 404.25,-447.81"/>
<text text-anchor="middle" x="399" y="-513.7" font-family="NanumSquare" font-size="8.50">예</text>
</g>
<!-- diff_root -->
<g id="node6" class="node">
<title>diff_root</title>
<path fill="white" stroke="#555555" d="M223.37,-450.04C223.37,-450.04 128.63,-425.96 128.63,-425.96 122.82,-424.48 122.82,-421.52 128.63,-420.04 128.63,-420.04 223.37,-395.96 223.37,-395.96 229.18,-394.48 240.82,-394.48 246.63,-395.96 246.63,-395.96 341.37,-420.04 341.37,-420.04 347.18,-421.52 347.18,-424.48 341.37,-425.96 341.37,-425.96 246.63,-450.04 246.63,-450.04 240.82,-451.52 229.18,-451.52 223.37,-450.04"/>
<text text-anchor="middle" x="235" y="-425.4" font-family="NanumSquare" font-size="9.50">동일 Consistency Key와</text>
<text text-anchor="middle" x="235" y="-415.4" font-family="NanumSquare" font-size="9.50">다른 Root 존재?</text>
</g>
<!-- same_root&#45;&gt;diff_root -->
<g id="edge9" class="edge">
<title>same_root&#45;&gt;diff_root</title>
<path fill="none" stroke="#555555" d="M246.11,-487.2C244.51,-478.11 242.72,-467.91 241.05,-458.4"/>
<polygon fill="#555555" stroke="#555555" points="243.28,-457.95 239.91,-451.94 238.8,-458.74 243.28,-457.95"/>
<text text-anchor="middle" x="255.5" y="-467.2" font-family="NanumSquare" font-size="8.50">아니오</text>
</g>
<!-- same_root&#45;&gt;duplicate -->
<g id="edge8" class="edge">
<title>same_root&#45;&gt;duplicate</title>
<path fill="none" stroke="#555555" d="M287.94,-495.38C309.75,-483.54 337.75,-467.92 362,-453 366.11,-450.47 370.39,-447.73 374.58,-444.97"/>
<polygon fill="#555555" stroke="#555555" points="376.06,-446.72 380.22,-441.23 373.55,-442.93 376.06,-446.72"/>
<text text-anchor="middle" x="346" y="-467.2" font-family="NanumSquare" font-size="8.50">예</text>
</g>
<!-- latest -->
<g id="node7" class="node">
<title>latest</title>
<path fill="white" stroke="#555555" d="M147.13,-358.22C147.13,-358.22 51.05,-343.78 51.05,-343.78 45.11,-342.89 45.11,-341.11 51.05,-340.22 51.05,-340.22 147.13,-325.78 147.13,-325.78 153.07,-324.89 164.93,-324.89 170.87,-325.78 170.87,-325.78 266.95,-340.22 266.95,-340.22 272.89,-341.11 272.89,-342.89 266.95,-343.78 266.95,-343.78 170.87,-358.22 170.87,-358.22 164.93,-359.11 153.07,-359.11 147.13,-358.22"/>
<text text-anchor="middle" x="159" y="-339.4" font-family="NanumSquare" font-size="9.50">세션 최신 Commitment 존재?</text>
</g>
<!-- diff_root&#45;&gt;latest -->
<g id="edge11" class="edge">
<title>diff_root&#45;&gt;latest</title>
<path fill="none" stroke="#555555" d="M212.2,-398.3C201.28,-386.95 188.35,-373.51 177.98,-362.73"/>
<polygon fill="#555555" stroke="#555555" points="179.55,-361.08 173.41,-357.98 176.27,-364.24 179.55,-361.08"/>
<text text-anchor="middle" x="206.5" y="-374.2" font-family="NanumSquare" font-size="8.50">아니오</text>
</g>
<!-- conflict -->
<g id="node16" class="node">
<title>conflict</title>
<path fill="#fadbd8" stroke="#555555" d="M435.5,-360C435.5,-360 308.5,-360 308.5,-360 302.5,-360 296.5,-354 296.5,-348 296.5,-348 296.5,-336 296.5,-336 296.5,-330 302.5,-324 308.5,-324 308.5,-324 435.5,-324 435.5,-324 441.5,-324 447.5,-330 447.5,-336 447.5,-336 447.5,-348 447.5,-348 447.5,-354 441.5,-360 435.5,-360"/>
<text text-anchor="middle" x="372" y="-344.4" font-family="NanumSquare" font-size="9.50">Receipt 생성 + Evidence Bundle</text>
<text text-anchor="middle" x="372" y="-334.4" font-family="NanumSquare" font-size="9.50">CONFLICT</text>
</g>
<!-- diff_root&#45;&gt;conflict -->
<g id="edge10" class="edge">
<title>diff_root&#45;&gt;conflict</title>
<path fill="none" stroke="#555555" d="M269.93,-401.86C290.36,-390.08 316.09,-375.24 336.61,-363.41"/>
<polygon fill="#555555" stroke="#555555" points="337.75,-365.38 342.25,-360.16 335.48,-361.43 337.75,-365.38"/>
<text text-anchor="middle" x="324" y="-374.2" font-family="NanumSquare" font-size="8.50">예</text>
</g>
<!-- initial -->
<g id="node8" class="node">
<title>initial</title>
<path fill="white" stroke="#555555" d="M91.48,-287.64C91.48,-287.64 11.52,-264.36 11.52,-264.36 5.76,-262.68 5.76,-259.32 11.52,-257.64 11.52,-257.64 91.48,-234.36 91.48,-234.36 97.24,-232.68 108.76,-232.68 114.52,-234.36 114.52,-234.36 194.48,-257.64 194.48,-257.64 200.24,-259.32 200.24,-262.68 194.48,-264.36 194.48,-264.36 114.52,-287.64 114.52,-287.64 108.76,-289.32 97.24,-289.32 91.48,-287.64"/>
<text text-anchor="middle" x="103" y="-263.4" font-family="NanumSquare" font-size="9.50">sequence=0 및</text>
<text text-anchor="middle" x="103" y="-253.4" font-family="NanumSquare" font-size="9.50">parent_root=None?</text>
</g>
<!-- latest&#45;&gt;initial -->
<g id="edge12" class="edge">
<title>latest&#45;&gt;initial</title>
<path fill="none" stroke="#555555" d="M147.94,-325.39C141.14,-315.81 132.22,-303.22 124.12,-291.79"/>
<polygon fill="#555555" stroke="#555555" points="125.83,-290.27 120.22,-286.29 122.12,-292.91 125.83,-290.27"/>
<text text-anchor="middle" x="149.5" y="-305.2" font-family="NanumSquare" font-size="8.50">아니오</text>
</g>
<!-- older -->
<g id="node9" class="node">
<title>older</title>
<path fill="white" stroke="#555555" d="M333.13,-277.23C333.13,-277.23 236.35,-262.77 236.35,-262.77 230.41,-261.89 230.41,-260.11 236.35,-259.23 236.35,-259.23 333.13,-244.77 333.13,-244.77 339.07,-243.89 350.93,-243.89 356.87,-244.77 356.87,-244.77 453.65,-259.23 453.65,-259.23 459.59,-260.11 459.59,-261.89 453.65,-262.77 453.65,-262.77 356.87,-277.23 356.87,-277.23 350.93,-278.11 339.07,-278.11 333.13,-277.23"/>
<text text-anchor="middle" x="345" y="-258.4" font-family="NanumSquare" font-size="9.50">sequence ≤ latest.sequence?</text>
</g>
<!-- latest&#45;&gt;older -->
<g id="edge15" class="edge">
<title>latest&#45;&gt;older</title>
<path fill="none" stroke="#555555" d="M188.88,-328.31C221.56,-314.43 273.92,-292.19 308.87,-277.34"/>
<polygon fill="#555555" stroke="#555555" points="310.1,-279.3 315.19,-274.66 308.32,-275.11 310.1,-279.3"/>
<text text-anchor="middle" x="251" y="-305.2" font-family="NanumSquare" font-size="8.50">예</text>
</g>
<!-- accept -->
<g id="node17" class="node">
<title>accept</title>
<path fill="#e9f7ef" stroke="#555555" d="M86.5,-198C86.5,-198 17.5,-198 17.5,-198 11.5,-198 5.5,-192 5.5,-186 5.5,-186 5.5,-174 5.5,-174 5.5,-168 11.5,-162 17.5,-162 17.5,-162 86.5,-162 86.5,-162 92.5,-162 98.5,-168 98.5,-174 98.5,-174 98.5,-186 98.5,-186 98.5,-192 92.5,-198 86.5,-198"/>
<text text-anchor="middle" x="52" y="-182.4" font-family="NanumSquare" font-size="9.50">Receipt·캐시 저장</text>
<text text-anchor="middle" x="52" y="-172.4" font-family="NanumSquare" font-size="9.50">ACCEPT</text>
</g>
<!-- initial&#45;&gt;accept -->
<g id="edge13" class="edge">
<title>initial&#45;&gt;accept</title>
<path fill="none" stroke="#555555" d="M87.14,-235.44C80.59,-225.29 73.05,-213.6 66.63,-203.66"/>
<polygon fill="#555555" stroke="#555555" points="68.43,-202.26 63,-198.04 64.61,-204.73 68.43,-202.26"/>
<text text-anchor="middle" x="80" y="-212.2" font-family="NanumSquare" font-size="8.50">예</text>
</g>
<!-- invalidupdate -->
<g id="node20" class="node">
<title>invalidupdate</title>
<path fill="#fdedec" stroke="#555555" d="M381.5,-36C381.5,-36 312.5,-36 312.5,-36 306.5,-36 300.5,-30 300.5,-24 300.5,-24 300.5,-12 300.5,-12 300.5,-6 306.5,0 312.5,0 312.5,0 381.5,0 381.5,0 387.5,0 393.5,-6 393.5,-12 393.5,-12 393.5,-24 393.5,-24 393.5,-30 387.5,-36 381.5,-36"/>
<text text-anchor="middle" x="347" y="-15.4" font-family="NanumSquare" font-size="9.50">INVALID_UPDATE</text>
</g>
<!-- initial&#45;&gt;invalidupdate -->
<g id="edge14" class="edge">
<title>initial&#45;&gt;invalidupdate</title>
<path fill="none" stroke="#555555" d="M105.73,-231.54C110.87,-184.07 123.52,-91.71 146,-69 192.49,-22.03 227.01,-52.54 291,-36 291.95,-35.75 292.91,-35.5 293.88,-35.24"/>
<polygon fill="#555555" stroke="#555555" points="294.66,-37.39 300.33,-33.49 293.46,-33 294.66,-37.39"/>
<text text-anchor="middle" x="131.5" y="-143.2" font-family="NanumSquare" font-size="8.50">아니오</text>
</g>
<!-- next -->
<g id="node10" class="node">
<title>next</title>
<path fill="white" stroke="#555555" d="M333.21,-195.78C333.21,-195.78 261.3,-182.22 261.3,-182.22 255.4,-181.11 255.4,-178.89 261.3,-177.78 261.3,-177.78 333.21,-164.22 333.21,-164.22 339.1,-163.11 350.9,-163.11 356.79,-164.22 356.79,-164.22 428.7,-177.78 428.7,-177.78 434.6,-178.89 434.6,-181.11 428.7,-182.22 428.7,-182.22 356.79,-195.78 356.79,-195.78 350.9,-196.89 339.1,-196.89 333.21,-195.78"/>
<text text-anchor="middle" x="345" y="-177.4" font-family="NanumSquare" font-size="9.50">sequence = latest+1?</text>
</g>
<!-- older&#45;&gt;next -->
<g id="edge17" class="edge">
<title>older&#45;&gt;next</title>
<path fill="none" stroke="#555555" d="M345,-242.86C345,-231.68 345,-216.93 345,-204.64"/>
<polygon fill="#555555" stroke="#555555" points="347.28,-204.61 345,-198.11 342.73,-204.61 347.28,-204.61"/>
<text text-anchor="middle" x="356.5" y="-212.2" font-family="NanumSquare" font-size="8.50">아니오</text>
</g>
<!-- older&#45;&gt;stale -->
<g id="edge16" class="edge">
<title>older&#45;&gt;stale</title>
<path fill="none" stroke="#555555" d="M369.6,-246.6C393.64,-233.5 430.39,-213.48 456.97,-199"/>
<polygon fill="#555555" stroke="#555555" points="458.19,-200.92 462.81,-195.81 456.02,-196.93 458.19,-200.92"/>
<text text-anchor="middle" x="439" y="-212.2" font-family="NanumSquare" font-size="8.50">예</text>
</g>
<!-- parent -->
<g id="node11" class="node">
<title>parent</title>
<path fill="white" stroke="#555555" d="M516.45,-125.76C516.45,-125.76 432.55,-102.24 432.55,-102.24 426.78,-100.62 426.78,-97.38 432.55,-95.76 432.55,-95.76 516.45,-72.24 516.45,-72.24 522.22,-70.62 533.78,-70.62 539.55,-72.24 539.55,-72.24 623.45,-95.76 623.45,-95.76 629.22,-97.38 629.22,-100.62 623.45,-102.24 623.45,-102.24 539.55,-125.76 539.55,-125.76 533.78,-127.38 522.22,-127.38 516.45,-125.76"/>
<text text-anchor="middle" x="528" y="-101.4" font-family="NanumSquare" font-size="9.50">parent_root 일치 및</text>
<text text-anchor="middle" x="528" y="-91.4" font-family="NanumSquare" font-size="9.50">context_digest 존재?</text>
</g>
<!-- next&#45;&gt;parent -->
<g id="edge18" class="edge">
<title>next&#45;&gt;parent</title>
<path fill="none" stroke="#555555" d="M372.79,-167C401.41,-154.65 446.53,-135.17 480.76,-120.39"/>
<polygon fill="#555555" stroke="#555555" points="481.95,-122.36 487.02,-117.69 480.15,-118.18 481.95,-122.36"/>
<text text-anchor="middle" x="436" y="-143.2" font-family="NanumSquare" font-size="8.50">예</text>
</g>
<!-- future -->
<g id="node12" class="node">
<title>future</title>
<path fill="white" stroke="#555555" d="M267.34,-126.18C267.34,-126.18 166.66,-101.82 166.66,-101.82 160.83,-100.41 160.83,-97.59 166.66,-96.18 166.66,-96.18 267.34,-71.82 267.34,-71.82 273.17,-70.41 284.83,-70.41 290.66,-71.82 290.66,-71.82 391.34,-96.18 391.34,-96.18 397.17,-97.59 397.17,-100.41 391.34,-101.82 391.34,-101.82 290.66,-126.18 290.66,-126.18 284.83,-127.59 273.17,-127.59 267.34,-126.18"/>
<text text-anchor="middle" x="279" y="-101.4" font-family="NanumSquare" font-size="9.50">sequence &gt; latest+1이며</text>
<text text-anchor="middle" x="279" y="-91.4" font-family="NanumSquare" font-size="9.50">parent_root 불일치?</text>
</g>
<!-- next&#45;&gt;future -->
<g id="edge21" class="edge">
<title>next&#45;&gt;future</title>
<path fill="none" stroke="#555555" d="M332.59,-164.14C324.49,-154.45 313.64,-141.47 303.83,-129.72"/>
<polygon fill="#555555" stroke="#555555" points="305.31,-127.95 299.4,-124.42 301.82,-130.87 305.31,-127.95"/>
<text text-anchor="middle" x="331.5" y="-143.2" font-family="NanumSquare" font-size="8.50">아니오</text>
</g>
<!-- validupdate -->
<g id="node18" class="node">
<title>validupdate</title>
<path fill="#e9f7ef" stroke="#555555" d="M579.5,-36C579.5,-36 476.5,-36 476.5,-36 470.5,-36 464.5,-30 464.5,-24 464.5,-24 464.5,-12 464.5,-12 464.5,-6 470.5,0 476.5,0 476.5,0 579.5,0 579.5,0 585.5,0 591.5,-6 591.5,-12 591.5,-12 591.5,-24 591.5,-24 591.5,-30 585.5,-36 579.5,-36"/>
<text text-anchor="middle" x="528" y="-20.4" font-family="NanumSquare" font-size="9.50">Head 갱신 + Pending 해소</text>
<text text-anchor="middle" x="528" y="-10.4" font-family="NanumSquare" font-size="9.50">VALID_UPDATE</text>
</g>
<!-- parent&#45;&gt;validupdate -->
<g id="edge19" class="edge">
<title>parent&#45;&gt;validupdate</title>
<path fill="none" stroke="#555555" d="M528,-68.58C528,-60.08 528,-50.92 528,-42.8"/>
<polygon fill="#555555" stroke="#555555" points="530.28,-42.78 528,-36.28 525.73,-42.78 530.28,-42.78"/>
<text text-anchor="middle" x="532" y="-50.2" font-family="NanumSquare" font-size="8.50">예</text>
</g>
<!-- parent&#45;&gt;invalidupdate -->
<g id="edge20" class="edge">
<title>parent&#45;&gt;invalidupdate</title>
<path fill="none" stroke="#555555" d="M487.38,-80.27C459.16,-67.95 421.53,-51.53 392.34,-38.79"/>
<polygon fill="#555555" stroke="#555555" points="393.11,-36.64 386.24,-36.13 391.29,-40.81 393.11,-36.64"/>
<text text-anchor="middle" x="444.5" y="-50.2" font-family="NanumSquare" font-size="8.50">아니오</text>
</g>
<!-- pending -->
<g id="node19" class="node">
<title>pending</title>
<path fill="#fff8e7" stroke="#555555" d="M270,-36C270,-36 156,-36 156,-36 150,-36 144,-30 144,-24 144,-24 144,-12 144,-12 144,-6 150,0 156,0 156,0 270,0 270,0 276,0 282,-6 282,-12 282,-12 282,-24 282,-24 282,-30 276,-36 270,-36"/>
<text text-anchor="middle" x="213" y="-20.4" font-family="NanumSquare" font-size="9.50">Receipt(PENDING)·캐시 저장</text>
<text text-anchor="middle" x="213" y="-10.4" font-family="NanumSquare" font-size="9.50">PENDING_UPDATE</text>
</g>
<!-- future&#45;&gt;pending -->
<g id="edge22" class="edge">
<title>future&#45;&gt;pending</title>
<path fill="none" stroke="#555555" d="M258.84,-73.87C250.19,-63.51 240.14,-51.49 231.66,-41.34"/>
<polygon fill="#555555" stroke="#555555" points="233.3,-39.75 227.39,-36.22 229.81,-42.67 233.3,-39.75"/>
<text text-anchor="middle" x="249" y="-50.2" font-family="NanumSquare" font-size="8.50">예</text>
</g>
<!-- future&#45;&gt;invalidupdate -->
<g id="edge23" class="edge">
<title>future&#45;&gt;invalidupdate</title>
<path fill="none" stroke="#555555" d="M299.77,-73.87C308.69,-63.51 319.04,-51.49 327.77,-41.34"/>
<polygon fill="#555555" stroke="#555555" points="329.66,-42.63 332.18,-36.22 326.21,-39.66 329.66,-42.63"/>
<text text-anchor="middle" x="333.5" y="-50.2" font-family="NanumSquare" font-size="8.50">아니오</text>
</g>
</g>
</svg>
